<svg version="1.1" id="Layer_1" xmlns="http://www.w3.org/2000/svg" xmlns:xlink="http://www.w3.org/1999/xlink" x="0px" y="0px"
	 width="100%" viewBox="0 0 192 156" enable-background="new 0 0 192 156" xml:space="preserve">
<path fill="#FEFEFE" opacity="1.000000" stroke="none" 
	d="
M1.000000,126.000000 
	C1.000000,84.373863 1.000000,42.747730 1.000000,1.060797 
	C64.897163,1.060797 128.794403,1.060797 193.000000,1.060797 
	C193.000000,45.020412 193.000000,89.041550 192.629059,133.458405 
	C191.503586,130.903244 190.749054,127.952385 189.985443,124.616837 
	C188.996582,120.839478 186.943604,121.341835 185.484589,123.491280 
	C182.428955,127.992889 177.901291,125.832893 174.063141,126.280502 
	C171.152100,126.619980 168.094604,125.703499 165.102280,125.345909 
	C160.296692,121.677338 155.586899,120.754608 148.662079,123.505470 
	C147.892929,123.453049 147.458542,123.365601 146.887711,122.993813 
	C145.160034,122.983231 143.568817,123.256996 141.535858,123.631165 
	C140.389099,124.388329 139.087891,125.030731 139.071686,125.704086 
	C138.916702,132.139816 138.979080,138.580765 138.979080,145.311996 
	C140.976761,145.177002 142.451752,145.077316 144.212662,144.762268 
	C145.004425,142.470795 145.510269,140.394699 146.347595,138.239594 
	C147.129288,138.202209 147.579514,138.243820 148.210968,138.468750 
	C148.914581,138.407791 149.436996,138.163498 149.971390,137.941086 
	C149.983383,137.962967 149.938431,137.940628 150.357269,137.959564 
	C156.940491,137.692612 162.855469,134.337799 169.315781,136.846085 
	C170.866486,137.448151 173.088928,136.320099 175.335052,135.991852 
	C176.111160,135.999359 176.554657,136.002731 177.262665,136.288666 
	C180.349289,136.383972 183.171432,136.196701 186.220001,136.278763 
	C188.630951,137.365387 190.815475,138.182693 193.000000,139.000000 
	C193.000000,144.988235 193.000000,150.976456 193.000000,156.960587 
	C128.999985,156.956482 64.999985,156.956482 1.000000,156.956482 
	C1.000000,151.922760 1.000000,146.932587 1.418769,141.471375 
	C5.424358,141.429474 8.418027,140.648773 10.253242,136.998352 
	C10.502573,137.000076 11.001389,137.000824 11.334349,137.001465 
	C12.111254,137.001602 12.555200,137.001099 13.272915,136.770401 
	C13.698949,135.360733 13.851214,134.181290 14.373720,133.076202 
	C16.209366,137.694336 19.850090,137.044922 23.427242,136.968262 
	C29.217964,136.844177 35.014412,136.987106 40.920597,137.223877 
	C41.149899,137.746170 41.368477,137.956329 41.737297,138.479202 
	C41.753155,140.580460 41.720203,142.263474 41.522636,144.072556 
	C41.567688,144.465897 41.777359,144.733154 42.380699,145.105042 
	C43.849255,145.140076 44.924145,145.070496 46.247414,145.076447 
	C46.660488,145.098785 46.825184,145.045563 47.162392,144.929306 
	C47.409817,144.770874 47.568043,144.638458 47.545002,144.586624 
	C47.452412,144.378387 47.303711,144.195068 47.111092,143.669205 
	C47.089241,142.887222 47.132050,142.438599 47.417706,141.706238 
	C48.065052,140.063156 48.066635,138.306168 48.945843,137.415344 
	C52.237801,134.079926 52.345402,134.186127 51.284492,130.295166 
	C51.001839,132.180939 50.717243,134.065002 50.432648,135.949066 
	C50.024929,135.969223 49.617210,135.989380 49.209488,136.009552 
	C48.543221,135.011398 47.876949,134.013260 47.139076,132.639862 
	C47.117352,131.505524 47.167229,130.746445 47.444134,129.783188 
	C47.514194,128.379684 47.357231,127.180351 47.120667,125.615753 
	C46.353260,124.789146 45.665447,124.327797 44.772263,123.592148 
	C43.329456,123.873772 42.092022,124.429695 40.518753,125.035522 
	C38.723873,125.800804 37.048946,127.389351 35.840614,127.090614 
	C27.660522,125.068214 27.692413,124.939224 24.986063,132.981766 
	C23.512270,132.877487 21.945858,132.766632 20.467745,132.662048 
	C19.619261,129.630875 20.904556,125.594864 15.616102,126.004501 
	C14.493656,126.001740 13.745201,126.000084 12.664581,125.998070 
	C11.889531,125.997696 11.446647,125.997681 10.752954,125.997383 
	C10.334944,125.998207 10.167742,125.999306 9.550528,125.999832 
	C6.400342,125.999504 3.700171,125.999748 1.000000,126.000000 
M114.519615,75.664948 
	C114.678001,75.105553 114.836380,74.546158 115.074699,73.455170 
	C115.155518,73.295235 115.236328,73.135292 115.645798,72.760284 
	C115.837616,72.576546 115.991318,72.365105 116.792053,71.968040 
	C118.217690,69.695709 119.643326,67.423378 121.045090,65.048729 
	C121.045090,65.048729 121.150124,65.046219 121.531731,64.823395 
	C121.769783,64.633842 121.935059,64.394112 122.085266,63.664555 
	C122.085266,63.664555 122.114197,63.222069 122.602921,62.947502 
	C123.050133,62.625599 123.497337,62.303692 124.653618,62.288433 
	C128.624664,62.485352 132.595703,62.682274 135.847900,62.843548 
	C137.259384,59.160500 138.370621,56.260895 139.481857,53.361294 
	C140.068115,53.509533 140.654388,53.657768 141.240662,53.806007 
	C140.696701,56.827122 140.152740,59.848240 139.717941,62.263054 
	C141.883148,62.263054 144.669662,62.263054 147.831161,62.263054 
	C143.514893,59.069931 144.181732,55.849854 148.958359,51.508659 
	C142.667175,51.508659 137.969620,51.472057 133.273254,51.530445 
	C131.819489,51.548515 130.368942,51.824875 128.944901,51.162724 
	C129.351089,48.444176 129.757278,45.725632 130.722015,42.913342 
	C131.013748,42.593674 131.305481,42.274006 131.597198,41.954338 
	C131.117508,41.633904 130.637833,41.313465 130.010239,40.244843 
	C129.977707,39.230057 129.945190,38.215275 129.977280,36.506443 
	C129.701508,35.683815 129.425735,34.861187 128.954605,33.584347 
	C128.954605,33.584347 128.953995,33.089909 128.970108,32.507061 
	C128.708710,32.018028 128.447296,31.528994 127.855949,30.395035 
	C125.692665,27.150089 123.529388,23.905144 121.334770,20.669195 
	C121.334770,20.669195 121.315018,20.647331 121.152954,20.036680 
	C119.439072,18.730209 117.725189,17.423737 115.425415,15.825548 
	C114.265312,14.958487 113.105217,14.091425 111.258125,12.939767 
	C109.705917,12.316424 108.153709,11.693082 106.169151,10.554881 
	C104.098671,10.255896 102.028183,9.956911 99.190453,9.332681 
	C97.813141,9.356829 96.435837,9.380977 94.263466,9.254516 
	C89.153709,11.160395 84.043953,13.066273 78.994293,14.996758 
	C78.994293,14.996758 78.977737,14.933964 78.383049,15.050055 
	C77.660965,15.696771 76.938881,16.343487 75.693810,17.289135 
	C75.146538,17.856165 74.599266,18.423193 73.720535,19.229279 
	C73.720535,19.229279 73.520142,19.585451 72.916664,19.868664 
	C71.138916,22.465136 69.361168,25.061607 67.170876,28.075422 
	C66.739471,28.725815 66.308067,29.376209 65.413475,30.420706 
	C65.305649,31.009090 65.197823,31.597475 65.133698,32.816868 
	C65.138626,33.238491 65.143562,33.660118 64.994865,34.083900 
	C64.994865,34.083900 64.874443,33.988476 64.348297,34.284710 
	C64.272545,35.203617 64.196793,36.122528 64.178078,37.843006 
	C64.061447,38.906296 63.944809,39.969589 63.356117,41.530182 
	C63.546562,43.014595 63.737007,44.499012 64.145653,46.537052 
	C64.151718,46.929382 64.157776,47.321709 64.042793,48.509705 
	C62.741852,52.649059 60.019199,53.206516 56.983585,50.689350 
	C53.398613,47.716648 49.637299,47.640949 45.040611,48.565052 
	C45.040611,52.712353 44.930080,56.660912 45.131618,60.593475 
	C45.173130,61.403473 46.437534,62.864613 47.038456,62.815056 
	C50.654064,62.516872 54.240574,61.865837 58.563782,61.225216 
	C61.090908,65.173813 66.439819,62.219433 71.484505,63.362026 
	C74.454498,67.533546 77.424500,71.705070 80.289886,76.615723 
	C80.669189,77.750694 81.048492,78.885658 81.231812,80.360435 
	C81.231812,80.360435 81.150085,80.743851 81.061707,81.375084 
	C81.041237,81.586555 81.020775,81.798027 80.387466,82.069412 
	C79.922615,82.655693 79.457756,83.241982 78.315430,84.150177 
	C79.824547,89.147240 83.013580,92.514908 88.529762,94.638092 
	C89.485878,94.703262 90.441986,94.768440 92.125237,94.810806 
	C93.082977,94.953056 94.040710,95.095314 95.176567,95.532425 
	C95.449738,95.449196 95.722900,95.365967 96.819435,95.155434 
	C98.206276,95.146141 99.593109,95.136841 100.995293,95.863403 
	C101.000359,96.599403 101.005424,97.335396 100.124771,98.373848 
	C93.517227,99.004974 87.315392,98.038734 81.721230,94.113258 
	C80.991646,93.601311 79.554077,94.098312 78.444443,94.127975 
	C78.813789,95.052681 78.935028,96.264717 79.604027,96.842415 
	C81.006256,98.053253 82.614105,99.098740 84.282249,99.917137 
	C95.644791,105.491600 105.825447,101.896454 117.119766,95.375633 
	C114.695885,94.495552 113.436974,94.038452 111.703995,92.740059 
	C111.179123,92.378906 110.654251,92.017754 110.535835,91.144463 
	C111.058151,90.768280 111.580467,90.392097 112.806709,89.946350 
	C117.779198,86.787605 117.779198,86.787605 114.955765,83.278259 
	C114.303932,82.859909 113.652092,82.441559 112.992386,81.200378 
	C112.943100,80.379570 112.893814,79.558754 112.924545,78.159744 
	C112.953072,77.772629 112.981598,77.385506 113.184021,76.744720 
	C113.184021,76.744720 113.148460,76.439240 113.594650,76.233070 
	C113.594650,76.233070 114.031052,76.006897 114.519615,75.664948 
M54.346928,144.313446 
	C54.524918,144.794434 54.702908,145.275436 54.880890,145.756409 
	C55.235085,145.579346 55.589279,145.402283 56.639313,145.254913 
	C57.102592,145.231293 57.565868,145.207672 58.506538,145.652924 
	C58.979908,144.163574 59.374771,142.643112 59.948929,141.193695 
	C60.512157,139.771866 61.257732,138.422302 62.427551,137.492157 
	C65.267952,139.941376 65.371201,145.753494 71.265289,145.112701 
	C71.265289,137.839890 71.265289,131.088486 71.265289,123.858086 
	C69.747711,123.951668 68.439774,124.032318 66.806839,124.133018 
	C66.806839,128.050262 66.806839,131.437912 66.806839,135.620804 
	C65.117874,133.658813 63.980270,132.337311 62.867928,130.358383 
	C61.920517,128.889496 60.973106,127.420624 59.936565,125.200706 
	C58.153782,124.663918 56.059078,123.282494 54.664696,123.797432 
	C52.789124,124.490074 53.039223,134.674759 54.753754,137.917755 
	C54.771145,139.961639 54.788536,142.005539 54.346928,144.313446 
M78.679245,138.092621 
	C78.842369,140.835373 78.039749,144.491501 81.790802,145.034027 
	C85.207649,145.528183 90.123680,146.015701 91.996376,144.134460 
	C94.203232,141.917526 93.846893,137.149078 94.638161,133.311157 
	C91.333687,133.311157 89.379295,133.311157 86.612534,133.311157 
	C87.529297,136.018967 88.294861,138.280182 89.142632,140.784195 
	C87.093170,140.784195 85.675209,140.784195 84.121063,140.784195 
	C84.121063,136.472473 84.121063,132.410889 84.121063,127.933472 
	C87.328560,127.933472 90.255127,127.933472 94.157310,127.933472 
	C93.417480,125.946541 93.295395,123.886383 92.378349,123.432533 
	C85.637802,120.096695 78.721565,124.391426 78.685745,131.715149 
	C78.676796,133.544922 78.681969,135.374771 78.679245,138.092621 
M126.184486,132.429062 
	C126.184486,129.652466 126.184486,126.875877 126.184486,124.040741 
	C124.193649,124.040741 122.787338,124.040741 121.268661,124.040741 
	C121.268661,131.194092 121.268661,138.081436 121.268661,144.936691 
	C133.675735,146.130798 134.138199,145.973114 132.834808,141.113632 
	C130.738708,140.961594 128.642609,140.809555 126.184784,140.631287 
	C126.184784,137.996536 126.184784,135.694611 126.184486,132.429062 
M92.920670,105.954491 
	C90.161278,105.024124 87.434967,103.970840 84.628418,103.215759 
	C83.244637,102.843468 81.712608,103.022179 80.247665,102.951561 
	C81.135201,104.127663 81.773621,105.880318 82.949745,106.388474 
	C92.213142,110.390862 101.613914,110.267998 110.928947,106.516418 
	C112.229561,105.992622 113.204254,104.659569 114.329811,103.701111 
	C114.146530,103.398773 113.963257,103.096428 113.779984,102.794083 
	C107.124428,103.848091 100.468872,104.902100 92.920670,105.954491 
z"/>
<path fill="#F9F9F9" opacity="1.000000" stroke="none" 
	d="
M10.003912,136.996613 
	C8.418027,140.648773 5.424358,141.429474 1.418769,141.000183 
	C1.000000,136.310745 1.000000,131.621490 1.000000,126.466118 
	C3.700171,125.999748 6.400342,125.999504 9.550016,126.456612 
	C10.000983,130.274857 10.002448,133.635727 10.003912,136.996613 
z"/>
<path fill="#F3F3F3" opacity="1.000000" stroke="none" 
	d="
M189.994507,125.001526 
	C190.749054,127.952385 191.503586,130.903244 192.629059,133.927063 
	C193.000000,135.388885 193.000000,136.777786 193.000000,138.583344 
	C190.815475,138.182693 188.630951,137.365387 186.196823,135.956635 
	C185.299606,134.576370 184.651993,133.787582 184.003326,132.748978 
	C184.002258,132.499176 184.004883,131.999573 184.375916,131.923798 
	C185.166977,130.743729 185.347778,129.440689 186.062103,128.580902 
	C187.183868,127.230721 188.665344,126.179405 189.994507,125.001526 
z"/>
<path fill="#F3F6F7" opacity="1.000000" stroke="none" 
	d="
M189.985428,124.616837 
	C188.665344,126.179405 187.183868,127.230721 186.062103,128.580902 
	C185.347778,129.440689 185.166977,130.743729 184.156418,131.816498 
	C183.291855,131.587128 183.102875,131.327377 182.967987,130.676498 
	C182.034302,129.664841 181.131546,128.982452 180.228806,128.300064 
	C179.981430,128.724213 179.734055,129.148361 179.486694,129.572510 
	C180.325592,130.049469 181.164505,130.526413 182.002472,131.360321 
	C182.365662,132.661835 182.729813,133.606400 183.093948,134.550964 
	C183.397430,134.033569 183.700912,133.516174 184.004395,132.998779 
	C184.651993,133.787582 185.299606,134.576370 185.970398,135.687286 
	C183.171432,136.196701 180.349289,136.383972 177.302124,135.922577 
	C177.077087,133.075974 177.077087,130.878006 177.077087,128.680054 
	C176.385544,128.688766 175.693985,128.697479 175.002441,128.706177 
	C175.002441,131.133362 175.002441,133.560547 175.002441,135.987732 
	C173.088928,136.320099 170.866486,137.448151 169.315781,136.846085 
	C162.855469,134.337799 156.940491,137.692612 150.540009,137.612488 
	C154.944397,134.167831 154.221237,126.546028 148.996826,123.470444 
	C155.586899,120.754608 160.296692,121.677338 165.102280,125.345909 
	C168.094604,125.703499 171.152100,126.619980 174.063141,126.280502 
	C177.901291,125.832893 182.428955,127.992889 185.484589,123.491280 
	C186.943604,121.341835 188.996582,120.839478 189.985428,124.616837 
z"/>
<path fill="#5E9CE3" opacity="1.000000" stroke="none" 
	d="
M122.114197,63.222069 
	C122.114197,63.222069 122.085266,63.664555 121.836449,63.960526 
	C121.309525,64.446434 121.163689,64.709679 121.150124,65.046219 
	C121.150124,65.046219 121.045090,65.048729 120.870117,65.080368 
	C120.695152,65.112015 120.320114,65.092567 120.038391,65.151138 
	C119.514214,65.492386 119.271744,65.775063 119.015915,66.029549 
	C119.002541,66.001366 119.057487,66.030922 118.814507,66.142151 
	C118.395271,66.555023 118.219017,66.856682 118.021095,67.436905 
	C117.699272,68.151833 117.399124,68.588188 116.854637,69.127533 
	C116.431137,69.526054 116.251976,69.821587 116.072495,70.075394 
	C116.072174,70.033661 116.150642,70.062119 115.864700,70.202850 
	C115.410973,70.933296 115.243179,71.523003 115.085487,72.093857 
	C115.095589,72.075005 115.125824,72.115616 114.736404,72.147903 
	C113.947472,73.599869 113.547966,75.019554 113.148453,76.439240 
	C113.148460,76.439240 113.184021,76.744720 112.734039,76.910675 
	C111.205528,79.073364 110.127014,81.070099 109.024139,83.040253 
	C108.999779,83.013672 109.069977,83.030205 108.833199,83.124352 
	C108.402290,83.489532 108.208160,83.760567 108.006592,84.015076 
	C107.999146,83.998558 108.031593,84.014717 107.808548,84.105225 
	C107.304962,84.375290 107.105667,84.620804 106.817642,85.191208 
	C105.761620,85.990868 104.875572,86.531586 103.673378,87.061279 
	C102.620956,87.385353 101.884682,87.720451 100.841209,88.071381 
	C100.334801,88.135910 100.135597,88.184631 99.521385,88.170746 
	C97.429657,88.155960 95.752937,88.203773 93.723915,88.158340 
	C91.862396,87.401672 90.353172,86.738258 89.215652,86.019348 
	C91.639412,84.663406 94.658485,83.833199 95.562355,81.974426 
	C98.282799,76.379951 102.345749,72.329895 107.216331,68.713982 
	C108.353920,67.869431 108.440796,65.609612 109.395470,64.000153 
	C111.536949,63.017853 113.294060,62.036350 115.408234,61.000240 
	C118.444656,59.041828 121.124008,57.138020 124.968201,54.406540 
	C123.553085,57.028835 122.469666,59.036472 121.134232,61.511112 
	C121.156631,61.550217 121.635414,62.386143 122.114197,63.222069 
z"/>
<path fill="#F4F8FA" opacity="1.000000" stroke="none" 
	d="
M70.898857,63.027027 
	C66.439819,62.219433 61.090908,65.173813 58.563782,61.225216 
	C54.240574,61.865837 50.654064,62.516872 47.038456,62.815056 
	C46.437534,62.864613 45.173130,61.403473 45.131618,60.593475 
	C44.930080,56.660912 45.040611,52.712353 45.040611,48.565052 
	C49.637299,47.640949 53.398613,47.716648 56.983585,50.689350 
	C60.019199,53.206516 62.741852,52.649059 64.289337,48.184372 
	C64.535881,47.859035 64.898041,48.028652 64.874977,48.419598 
	C66.188690,52.231792 67.525459,55.653042 68.907120,59.395145 
	C69.600952,60.819675 70.249901,61.923351 70.898857,63.027027 
z"/>
<path fill="#5496E1" opacity="1.000000" stroke="none" 
	d="
M109.011093,64.000946 
	C108.440796,65.609612 108.353920,67.869431 107.216331,68.713982 
	C102.345749,72.329895 98.282799,76.379951 95.562355,81.974426 
	C94.658485,83.833199 91.639412,84.663406 88.897797,85.962837 
	C86.796295,84.665009 85.384377,83.368187 83.942078,81.750282 
	C83.083733,80.959671 82.255760,80.490150 81.427795,80.020630 
	C81.048492,78.885658 80.669189,77.750694 80.669388,76.073624 
	C83.257431,75.182030 85.465981,74.832535 87.878784,74.450722 
	C87.731987,72.580475 87.609497,71.019936 87.475067,69.307365 
	C89.380936,68.510094 91.182411,67.756493 93.231133,67.120628 
	C93.680695,67.720184 93.883018,68.201996 94.276688,69.032471 
	C96.764458,69.684845 99.612396,72.001801 100.600182,67.625969 
	C100.556114,67.562721 100.527084,67.411301 100.866501,67.424080 
	C103.273682,65.078590 104.600082,61.036201 109.011093,64.000946 
M90.432968,81.704315 
	C90.704987,81.989220 90.977005,82.274132 91.249016,82.559044 
	C91.366966,82.446335 91.484917,82.333626 91.602867,82.220917 
	C91.330574,81.936050 91.058273,81.651192 90.432968,81.704315 
z"/>
<path fill="#254060" opacity="1.000000" stroke="none" 
	d="
M78.679947,137.648590 
	C78.681969,135.374771 78.676796,133.544922 78.685745,131.715149 
	C78.721565,124.391426 85.637802,120.096695 92.378349,123.432533 
	C93.295395,123.886383 93.417480,125.946541 94.157310,127.933472 
	C90.255127,127.933472 87.328560,127.933472 84.121063,127.933472 
	C84.121063,132.410889 84.121063,136.472473 84.121063,140.784195 
	C85.675209,140.784195 87.093170,140.784195 89.142632,140.784195 
	C88.294861,138.280182 87.529297,136.018967 86.612534,133.311157 
	C89.379295,133.311157 91.333687,133.311157 94.638161,133.311157 
	C93.846893,137.149078 94.203232,141.917526 91.996376,144.134460 
	C90.123680,146.015701 85.207649,145.528183 81.790802,145.034027 
	C78.039749,144.491501 78.842369,140.835373 78.679947,137.648590 
z"/>
<path fill="#F9F9F9" opacity="1.000000" stroke="none" 
	d="
M12.999146,137.000610 
	C12.555200,137.001099 12.111254,137.001602 11.334504,136.544495 
	C11.002387,132.723816 11.003074,129.360733 11.003761,125.997665 
	C11.446647,125.997681 11.889531,125.997696 12.846457,126.248901 
	C14.237030,126.335281 15.113562,126.170456 15.990093,126.005630 
	C20.904556,125.594864 19.619261,129.630875 20.467745,132.662048 
	C21.945858,132.766632 23.512270,132.877487 24.986063,132.981766 
	C27.692413,124.939224 27.660522,125.068214 35.840614,127.090614 
	C37.048946,127.389351 38.723873,125.800804 40.562614,125.360016 
	C41.189045,126.437218 41.435772,127.239830 41.715927,128.373352 
	C41.767372,129.147369 41.785389,129.590469 41.557316,130.200317 
	C41.478954,131.236053 41.646679,132.105072 41.786591,133.305145 
	C41.741325,134.077469 41.723877,134.518723 41.492634,135.154816 
	C41.122044,135.905533 40.965240,136.461426 40.808441,137.017303 
	C35.014412,136.987106 29.217964,136.844177 23.427242,136.968262 
	C19.850090,137.044922 16.209366,137.694336 14.330092,132.793335 
	C13.838670,132.301605 13.789455,132.127197 13.674400,132.045624 
	C13.585653,131.982681 13.296953,132.028412 13.296229,132.039200 
	C13.185366,133.692215 13.092639,135.346436 12.999146,137.000610 
z"/>
<path fill="#498EDD" opacity="1.000000" stroke="none" 
	d="
M92.983894,67.002884 
	C91.182411,67.756493 89.380936,68.510094 87.475067,69.307365 
	C87.609497,71.019936 87.731987,72.580475 87.878784,74.450722 
	C85.465981,74.832535 83.257431,75.182030 80.721695,75.704056 
	C77.424500,71.705070 74.454498,67.533546 71.191681,63.194527 
	C70.249901,61.923351 69.600952,60.819675 69.296265,59.378048 
	C71.221855,59.258667 72.803185,59.477238 75.355156,59.829971 
	C72.971680,57.971085 71.564369,56.873520 70.157059,55.775951 
	C71.470177,54.509731 72.783287,53.243511 74.451790,51.984806 
	C76.162842,52.367950 77.518509,52.743584 78.923164,53.377083 
	C79.016373,53.804859 79.060593,53.974766 79.063667,54.529076 
	C79.050529,56.984360 78.731323,59.167294 79.339249,61.051014 
	C79.500687,61.551208 82.510017,61.132298 84.572052,61.106651 
	C90.029129,59.861382 92.552399,61.718204 92.983894,67.002884 
M87.301888,63.639153 
	C86.725769,63.578293 86.149651,63.517437 85.573532,63.456577 
	C85.532600,63.896629 85.491669,64.336678 85.450737,64.776726 
	C87.222382,64.933990 88.994019,65.091248 90.765663,65.248512 
	C90.799744,64.875076 90.833824,64.501640 90.867905,64.128197 
	C89.893097,64.039444 88.918289,63.950687 87.301888,63.639153 
z"/>
<path fill="#143053" opacity="1.000000" stroke="none" 
	d="
M148.662079,123.505470 
	C154.221237,126.546028 154.944397,134.167831 150.121170,137.593552 
	C149.938431,137.940628 149.983383,137.962967 149.645737,137.988007 
	C148.881973,138.103836 148.455872,138.194626 148.029755,138.285416 
	C147.579514,138.243820 147.129288,138.202209 145.943420,138.165070 
	C144.780762,140.438904 144.353760,142.708267 143.926758,144.977646 
	C142.451752,145.077316 140.976761,145.177002 138.979080,145.311996 
	C138.979080,138.580765 138.916702,132.139816 139.071686,125.704086 
	C139.087891,125.030731 140.389099,124.388329 141.954239,123.726578 
	C144.217621,123.573784 145.620895,123.425972 147.024155,123.278160 
	C147.458542,123.365601 147.892929,123.453049 148.662079,123.505470 
M148.887772,128.722122 
	C147.056091,128.437408 145.224426,128.152679 143.355042,127.862099 
	C143.355042,130.259811 143.355042,131.966873 143.355042,133.696625 
	C145.331528,133.696625 146.935593,133.696625 149.003876,133.696625 
	C149.003876,132.184219 149.003876,130.900696 148.887772,128.722122 
z"/>
<path fill="#F6F9FA" opacity="1.000000" stroke="none" 
	d="
M128.916916,51.982979 
	C130.368942,51.824875 131.819489,51.548515 133.273254,51.530445 
	C137.969620,51.472057 142.667175,51.508659 148.958359,51.508659 
	C144.181732,55.849854 143.514893,59.069931 147.831161,62.263054 
	C144.669662,62.263054 141.883148,62.263054 139.717941,62.263054 
	C140.152740,59.848240 140.696701,56.827122 141.240662,53.806007 
	C140.654388,53.657768 140.068115,53.509533 139.481857,53.361294 
	C138.370621,56.260895 137.259384,59.160500 135.847900,62.843548 
	C132.595703,62.682274 128.624664,62.485352 124.346085,61.844925 
	C124.366905,60.936562 124.695259,60.471714 125.244614,59.889458 
	C125.631256,59.489342 125.796906,59.206627 125.974701,58.957687 
	C125.986832,58.991459 125.917297,58.973671 126.193436,58.806206 
	C126.619659,58.028915 126.769753,57.419094 126.960732,56.473816 
	C127.640053,54.753231 128.278488,53.368103 128.916916,51.982979 
z"/>
<path fill="#304965" opacity="1.000000" stroke="none" 
	d="
M112.178055,93.581345 
	C113.436974,94.038452 114.695885,94.495552 117.119766,95.375633 
	C105.825447,101.896454 95.644791,105.491600 84.282249,99.917137 
	C82.614105,99.098740 81.006256,98.053253 79.604027,96.842415 
	C78.935028,96.264717 78.813789,95.052681 78.444443,94.127975 
	C79.554077,94.098312 80.991646,93.601311 81.721230,94.113258 
	C87.315392,98.038734 93.517227,99.004974 100.963165,98.280228 
	C105.260391,96.651527 108.719223,95.116440 112.178055,93.581345 
z"/>
<path fill="#1C395B" opacity="1.000000" stroke="none" 
	d="
M62.842674,131.015808 
	C63.980270,132.337311 65.117874,133.658813 66.806839,135.620804 
	C66.806839,131.437912 66.806839,128.050262 66.806839,124.133018 
	C68.439774,124.032318 69.747711,123.951668 71.265289,123.858086 
	C71.265289,131.088486 71.265289,137.839890 71.265289,145.112701 
	C65.371201,145.753494 65.267952,139.941376 62.128960,136.950806 
	C61.211823,135.301727 60.593277,134.193985 59.975784,132.737076 
	C59.987789,131.922394 59.998749,131.456879 60.363815,130.995560 
	C61.426174,131.005112 62.134422,131.010468 62.842674,131.015808 
z"/>
<path fill="#193658" opacity="1.000000" stroke="none" 
	d="
M126.184631,132.910858 
	C126.184784,135.694611 126.184784,137.996536 126.184784,140.631287 
	C128.642609,140.809555 130.738708,140.961594 132.835251,141.116699 
	C134.138199,145.973114 133.675735,146.130798 121.268661,144.936691 
	C121.268661,138.081436 121.268661,131.194092 121.268661,124.040741 
	C122.787338,124.040741 124.193649,124.040741 126.184486,124.040741 
	C126.184486,126.875877 126.184486,129.652466 126.184631,132.910858 
z"/>
<path fill="#4F90DB" opacity="1.000000" stroke="none" 
	d="
M128.953995,33.089912 
	C128.953995,33.089909 128.954605,33.584347 129.014999,34.172668 
	C129.084488,35.487244 129.093582,36.213493 129.031769,36.951595 
	C128.960876,36.963444 128.835037,37.032948 128.497528,36.948746 
	C125.559235,34.859478 123.148781,33.345249 122.838486,38.584660 
	C122.806793,39.119919 122.129112,39.616920 121.385056,40.081711 
	C114.631081,37.542137 114.039421,36.147720 115.727242,29.388405 
	C116.017952,28.224184 115.015823,26.737139 114.965218,25.310223 
	C116.112885,25.676266 116.880821,26.184969 117.704849,26.575203 
	C119.439323,27.396597 121.203232,28.155865 122.955055,28.940626 
	C122.635033,27.293224 122.315002,25.645824 121.964554,23.656395 
	C121.744797,22.429642 121.555458,21.544918 121.366112,20.660198 
	C123.529388,23.905144 125.692665,27.150089 127.995407,31.007315 
	C128.407913,32.109699 128.680954,32.599804 128.953995,33.089912 
z"/>
<path fill="#233D5B" opacity="1.000000" stroke="none" 
	d="
M94.998451,95.237564 
	C94.040710,95.095314 93.082977,94.953056 91.483131,94.586838 
	C89.894714,94.287651 88.948402,94.212440 88.002090,94.137230 
	C83.013580,92.514908 79.824547,89.147240 79.007393,84.055481 
	C80.167450,83.876663 80.635544,83.792549 81.206093,83.848663 
	C81.308548,83.988892 81.618538,83.832176 81.516953,84.111046 
	C81.948631,84.912491 82.481903,85.435074 83.225128,86.227303 
	C92.760651,94.792854 103.496574,93.762756 113.218529,83.792114 
	C113.630096,83.949425 113.807007,83.976387 114.055649,84.367851 
	C113.452507,86.493530 112.777649,88.254723 112.102783,90.015915 
	C111.580467,90.392097 111.058151,90.768280 110.013885,91.487747 
	C106.654602,92.929863 103.817276,94.028702 100.979950,95.127541 
	C99.593109,95.136841 98.206276,95.146141 96.161926,95.128616 
	C95.335754,95.147057 95.167099,95.192314 94.998451,95.237564 
z"/>
<path fill="#6DA3E2" opacity="1.000000" stroke="none" 
	d="
M78.874168,53.119213 
	C77.518509,52.743584 76.162842,52.367950 74.288498,51.685524 
	C71.560020,47.880829 69.350212,44.382935 67.124458,40.472118 
	C66.455170,38.066711 65.801826,36.074226 65.148499,34.081741 
	C65.143562,33.660118 65.138626,33.238491 65.344772,32.303772 
	C65.662781,31.202650 65.769722,30.614624 65.876663,30.026600 
	C66.308067,29.376209 66.739471,28.725815 67.488853,27.956280 
	C67.806831,27.837135 68.025322,28.022177 68.065155,28.353733 
	C69.101189,30.513369 70.070114,32.357044 71.102959,34.164185 
	C71.821899,35.422100 72.628578,36.629871 73.396065,37.860043 
	C74.556137,36.843994 76.184647,36.038940 76.760780,34.759865 
	C77.525452,33.062214 77.468750,30.994591 77.999908,29.406595 
	C79.926476,34.809296 78.935524,36.976738 74.718491,39.185337 
	C73.486198,39.830723 72.260689,41.830345 72.297722,43.174366 
	C72.333542,44.473991 73.871819,45.858402 74.990677,46.961617 
	C75.868477,47.827137 77.113251,48.320480 78.230347,49.216148 
	C78.409149,49.761391 78.641800,49.970345 78.989334,50.311604 
	C79.015015,50.543217 79.168182,50.983398 79.139862,51.276466 
	C79.173271,51.956112 79.235008,52.342690 79.191002,52.826645 
	C79.085258,52.924026 78.874168,53.119213 78.874168,53.119213 
z"/>
<path fill="#649CDB" opacity="1.000000" stroke="none" 
	d="
M125.023613,60.006863 
	C124.695259,60.471714 124.366905,60.936562 123.991547,61.691601 
	C123.497337,62.303692 123.050133,62.625599 122.358559,63.084785 
	C121.635414,62.386143 121.156631,61.550217 121.134232,61.511112 
	C122.469666,59.036472 123.553085,57.028835 124.968201,54.406540 
	C121.124008,57.138020 118.444656,59.041828 115.365601,60.956245 
	C114.965904,60.966858 114.880432,60.880848 114.978561,60.512520 
	C115.064590,58.488323 115.320457,56.776474 114.988510,55.187412 
	C114.106216,50.963631 115.843521,47.988094 119.846062,47.376701 
	C119.499268,48.910553 119.309937,50.153130 119.120605,51.395699 
	C121.396057,51.208775 123.745041,51.283970 125.903122,50.678635 
	C126.569183,50.491810 126.821693,48.470741 127.057625,47.249725 
	C127.192017,46.554234 126.723221,45.742767 126.855644,45.046188 
	C127.116142,43.676029 127.606544,42.349575 128.241623,40.835564 
	C128.610443,40.112316 128.739471,39.558537 128.888107,38.675976 
	C128.883484,37.909111 128.859253,37.471031 128.835022,37.032948 
	C128.835037,37.032948 128.960876,36.963444 129.235870,37.011395 
	C129.510880,37.059345 129.912659,37.200489 129.912659,37.200489 
	C129.945190,38.215275 129.977707,39.230057 130.016968,40.952545 
	C130.070282,42.109196 130.116882,42.558140 130.163483,43.007084 
	C129.757278,45.725632 129.351089,48.444176 128.930908,51.572853 
	C128.278488,53.368103 127.640053,54.753231 126.731384,56.683167 
	C126.279877,57.809875 126.098587,58.391773 125.917297,58.973671 
	C125.917297,58.973671 125.986832,58.991459 125.734665,59.052818 
	C125.329536,59.411739 125.176575,59.709301 125.023613,60.006863 
z"/>
<path fill="#2A445F" opacity="1.000000" stroke="none" 
	d="
M93.366989,105.955292 
	C100.468872,104.902100 107.124428,103.848091 113.779984,102.794083 
	C113.963257,103.096428 114.146530,103.398773 114.329811,103.701111 
	C113.204254,104.659569 112.229561,105.992622 110.928947,106.516418 
	C101.613914,110.267998 92.213142,110.390862 82.949745,106.388474 
	C81.773621,105.880318 81.135201,104.127663 80.247665,102.951569 
	C81.712608,103.022179 83.244637,102.843468 84.628418,103.215759 
	C87.434967,103.970840 90.161278,105.024124 93.366989,105.955292 
z"/>
<path fill="#EAF7FD" opacity="1.000000" stroke="none" 
	d="
M112.983871,83.661774 
	C103.496574,93.762756 92.760651,94.792854 83.196747,85.953133 
	C82.511787,84.883606 82.065163,84.357887 81.618538,83.832176 
	C81.618538,83.832176 81.308548,83.988892 81.183739,83.565781 
	C81.039391,82.764946 81.019852,82.387222 81.000305,82.009499 
	C81.020775,81.798027 81.041237,81.586555 81.422882,81.103043 
	C82.513527,81.244453 83.242989,81.657913 83.972450,82.071373 
	C85.384377,83.368187 86.796295,84.665009 88.526085,86.018333 
	C90.353172,86.738258 91.862396,87.401672 93.986938,88.381439 
	C96.380302,88.542984 98.158348,88.388168 99.936386,88.233353 
	C100.135597,88.184631 100.334801,88.135910 101.158539,88.062210 
	C102.518555,87.715584 103.254044,87.393944 103.989532,87.072304 
	C104.875572,86.531586 105.761620,85.990868 107.063431,85.136597 
	C107.663330,84.553604 107.847466,84.284164 108.031593,84.014717 
	C108.031593,84.014717 107.999146,83.998558 108.250908,83.930481 
	C108.691772,83.584999 108.880875,83.307602 109.069977,83.030205 
	C109.069977,83.030205 108.999779,83.013672 109.320114,82.903305 
	C110.708473,81.441269 111.776497,80.089607 112.844528,78.737946 
	C112.893814,79.558754 112.943100,80.379570 112.993042,81.884598 
	C112.990433,82.933144 112.987152,83.297455 112.983871,83.661774 
z"/>
<path fill="#2F7FDD" opacity="1.000000" stroke="none" 
	d="
M121.350441,20.664696 
	C121.555458,21.544918 121.744797,22.429642 121.591110,23.650795 
	C119.161514,23.996237 117.074936,24.005247 114.643280,24.004976 
	C113.838417,24.011957 113.378647,24.028215 112.565453,24.043510 
	C111.506104,24.044147 110.800171,24.045748 109.780762,23.898197 
	C107.643005,21.833544 105.818733,19.918039 104.153984,17.696829 
	C106.857376,16.002203 109.401253,14.613281 111.945122,13.224361 
	C113.105217,14.091425 114.265312,14.958487 115.746613,16.313383 
	C117.816879,18.083254 119.565948,19.365292 121.315018,20.647331 
	C121.315018,20.647331 121.334770,20.669195 121.350441,20.664696 
z"/>
<path fill="#2975CC" opacity="1.000000" stroke="none" 
	d="
M111.601624,13.082064 
	C109.401253,14.613281 106.857376,16.002203 103.719429,17.696198 
	C101.963966,18.046000 100.802589,18.090727 99.314758,18.194740 
	C98.331635,18.185965 97.674942,18.117903 97.010986,17.643848 
	C96.007256,11.491024 91.268593,13.824159 87.697411,13.046556 
	C87.246933,13.034260 87.066772,13.028290 87.111900,12.725926 
	C89.910965,11.421397 92.484741,10.413262 95.058525,9.405127 
	C96.435837,9.380977 97.813141,9.356829 99.728737,9.794508 
	C102.378517,10.527470 104.490005,10.798605 106.601501,11.069738 
	C108.153709,11.693082 109.705917,12.316424 111.601624,13.082064 
z"/>
<path fill="#2C4565" opacity="1.000000" stroke="none" 
	d="
M41.706425,134.959976 
	C41.723877,134.518723 41.741325,134.077469 42.128788,133.217804 
	C42.267002,131.877472 42.035202,130.955521 41.803406,130.033585 
	C41.785389,129.590469 41.767372,129.147369 41.853516,128.040359 
	C42.964336,126.206459 43.970989,125.036453 44.977638,123.866447 
	C45.665447,124.327797 46.353260,124.789146 47.039429,126.011826 
	C47.097557,127.844559 47.157333,128.915970 47.217110,129.987366 
	C47.167229,130.746445 47.117352,131.505524 47.049763,133.081299 
	C47.079655,136.595306 47.127258,139.292633 47.174858,141.989960 
	C47.132050,142.438599 47.089241,142.887222 47.028229,143.909821 
	C47.003315,144.653305 46.996597,144.822830 46.989876,144.992355 
	C46.825184,145.045563 46.660488,145.098785 46.247456,144.627747 
	C45.999115,141.261093 45.999115,138.418686 45.999115,135.216125 
	C44.285946,135.577820 43.226139,135.801575 42.072014,135.750061 
	C41.887268,135.303192 41.796844,135.131592 41.706425,134.959976 
z"/>
<path fill="#5796E1" opacity="1.000000" stroke="none" 
	d="
M74.051994,18.990223 
	C74.599266,18.423193 75.146538,17.856165 76.290817,17.125484 
	C77.584465,16.285875 78.281097,15.609919 78.977737,14.933963 
	C78.977737,14.933964 78.994293,14.996758 79.337288,14.990927 
	C81.111145,14.664964 82.542007,14.344832 83.982651,14.436591 
	C83.670921,17.802197 83.349403,20.755913 82.682816,23.772942 
	C81.872208,23.882431 81.406677,23.928604 80.573189,23.974766 
	C79.468201,23.989035 78.731163,24.003313 77.996521,23.676863 
	C78.755211,20.686398 77.965172,19.098303 74.775436,18.982586 
	C74.534317,18.972998 74.051994,18.990225 74.051994,18.990223 
z"/>
<path fill="#2D4867" opacity="1.000000" stroke="none" 
	d="
M62.855301,130.687103 
	C62.134422,131.010468 61.426174,131.005112 60.211792,130.694672 
	C58.915310,130.189148 58.124962,129.988693 57.334614,129.788254 
	C57.634583,130.919937 57.934551,132.051620 58.184570,133.537857 
	C58.042923,134.600967 57.951229,135.309509 57.515106,135.999863 
	C56.481037,135.994232 55.791401,136.006805 55.033092,135.571991 
	C54.958832,133.657272 55.067989,132.178650 54.925449,130.724716 
	C54.545872,126.852829 56.115314,125.181480 60.025696,125.951744 
	C60.973106,127.420624 61.920517,128.889496 62.855301,130.687103 
z"/>
<path fill="#E5EDF3" opacity="1.000000" stroke="none" 
	d="
M100.987625,95.495468 
	C103.817276,94.028702 106.654602,92.929863 109.810654,91.743820 
	C110.654251,92.017754 111.179123,92.378906 111.941025,93.160706 
	C108.719223,95.116440 105.260391,96.651527 101.406021,98.129005 
	C101.005424,97.335396 101.000359,96.599403 100.987625,95.495468 
z"/>
<path fill="#143155" opacity="1.000000" stroke="none" 
	d="
M42.166336,136.025330 
	C43.226139,135.801575 44.285946,135.577820 45.999115,135.216125 
	C45.999115,138.418686 45.999115,141.261093 45.999077,144.552216 
	C44.924145,145.070496 43.849255,145.140076 42.356613,144.827118 
	C41.854992,144.278549 41.771122,144.112518 41.687252,143.946472 
	C41.720203,142.263474 41.753155,140.580460 41.864285,138.152069 
	C42.017090,136.946228 42.091713,136.485779 42.166336,136.025330 
z"/>
<path fill="#C8D3DF" opacity="1.000000" stroke="none" 
	d="
M59.981133,125.576225 
	C56.115314,125.181480 54.545872,126.852829 54.925449,130.724716 
	C55.067989,132.178650 54.958832,133.657272 54.924248,135.836975 
	C54.794003,136.717712 54.703930,136.886108 54.613861,137.054504 
	C53.039223,134.674759 52.789124,124.490074 54.664696,123.797432 
	C56.059078,123.282494 58.153782,124.663918 59.981133,125.576225 
z"/>
<path fill="#3E7EC0" opacity="1.000000" stroke="none" 
	d="
M65.071678,34.082821 
	C65.801826,36.074226 66.455170,38.066711 66.818069,40.732201 
	C65.984428,43.613018 65.441238,45.820835 64.898041,48.028652 
	C64.898041,48.028652 64.535881,47.859035 64.349861,47.786537 
	C64.157776,47.321709 64.151718,46.929382 64.099083,45.850304 
	C63.977734,43.786663 63.902954,42.409771 63.828175,41.032879 
	C63.944809,39.969589 64.061447,38.906296 64.356110,37.193352 
	C64.647575,35.691956 64.761009,34.840214 64.874443,33.988476 
	C64.874443,33.988476 64.994865,34.083900 65.071678,34.082821 
z"/>
<path fill="#5787C1" opacity="1.000000" stroke="none" 
	d="
M83.972870,14.024701 
	C82.542007,14.344832 81.111145,14.664964 79.307236,14.978623 
	C84.043953,13.066273 89.153709,11.160395 94.660995,9.329821 
	C92.484741,10.413262 89.910965,11.421397 86.786629,12.724929 
	C85.481674,13.355117 84.727272,13.689909 83.972870,14.024701 
z"/>
<path fill="#C8D3DF" opacity="1.000000" stroke="none" 
	d="
M57.859535,136.018066 
	C57.951229,135.309509 58.042923,134.600967 58.474312,133.514709 
	C59.200916,133.120102 59.587822,133.103180 59.974731,133.086243 
	C60.593277,134.193985 61.211823,135.301727 61.876820,136.725250 
	C61.257732,138.422302 60.512157,139.771866 59.948929,141.193695 
	C59.374771,142.643112 58.979908,144.163574 58.258492,144.990906 
	C57.960140,141.558624 57.909836,138.788345 57.859535,136.018066 
z"/>
<path fill="#0F3058" opacity="1.000000" stroke="none" 
	d="
M57.515106,135.999863 
	C57.909836,138.788345 57.960140,141.558624 58.019798,144.756485 
	C57.565868,145.207672 57.102592,145.231293 56.255051,144.925751 
	C55.515835,144.414215 55.160881,144.231827 54.805923,144.049423 
	C54.788536,142.005539 54.771145,139.961639 54.683807,137.486130 
	C54.703930,136.886108 54.794003,136.717712 54.992920,136.284332 
	C55.791401,136.006805 56.481037,135.994232 57.515106,135.999863 
z"/>
<path fill="#F4F4F4" opacity="1.000000" stroke="none" 
	d="
M175.335052,135.991852 
	C175.002441,133.560547 175.002441,131.133362 175.002441,128.706177 
	C175.693985,128.697479 176.385544,128.688766 177.077087,128.680054 
	C177.077087,130.878006 177.077087,133.075974 177.037628,135.640015 
	C176.554657,136.002731 176.111160,135.999359 175.335052,135.991852 
z"/>
<path fill="#E8F0F5" opacity="1.000000" stroke="none" 
	d="
M47.417709,141.706238 
	C47.127258,139.292633 47.079655,136.595306 47.121365,133.456543 
	C47.876949,134.013260 48.543221,135.011398 49.209488,136.009552 
	C49.617210,135.989380 50.024929,135.969223 50.432648,135.949066 
	C50.717243,134.065002 51.001839,132.180939 51.284492,130.295166 
	C52.345402,134.186127 52.237801,134.079926 48.945843,137.415344 
	C48.066635,138.306168 48.065052,140.063156 47.417709,141.706238 
z"/>
<path fill="#E5EDF3" opacity="1.000000" stroke="none" 
	d="
M112.454742,89.981125 
	C112.777649,88.254723 113.452507,86.493530 114.349953,84.348137 
	C114.767075,83.935371 114.961624,83.906807 115.156174,83.878242 
	C117.779198,86.787605 117.779198,86.787605 112.454742,89.981125 
z"/>
<path fill="#6DA3E2" opacity="1.000000" stroke="none" 
	d="
M67.695129,27.747606 
	C69.361168,25.061607 71.138916,22.465136 73.341774,19.834583 
	C73.766884,19.800501 74.010139,20.010532 73.867874,20.322525 
	C71.825508,23.097073 69.925415,25.559624 68.025322,28.022177 
	C68.025322,28.022177 67.806831,27.837135 67.695129,27.747606 
z"/>
<path fill="#EAF7FD" opacity="1.000000" stroke="none" 
	d="
M120.320114,65.092567 
	C120.320114,65.092567 120.695152,65.112015 120.882065,65.131531 
	C119.643326,67.423378 118.217690,69.695709 116.412926,72.004639 
	C116.033798,72.041237 115.958778,71.960922 115.994080,71.643967 
	C116.069801,70.905380 116.110222,70.483749 116.150642,70.062119 
	C116.150642,70.062119 116.072174,70.033661 116.329689,69.993835 
	C116.757790,69.644188 116.928375,69.334358 117.098969,69.024536 
	C117.399124,68.588188 117.699272,68.151833 118.258621,67.317535 
	C118.697708,66.623375 118.877594,66.327148 119.057480,66.030922 
	C119.057487,66.030922 119.002541,66.001366 119.281219,65.943680 
	C119.813293,65.621521 120.066704,65.357040 120.320114,65.092567 
z"/>
<path fill="#649CDB" opacity="1.000000" stroke="none" 
	d="
M112.884537,78.448845 
	C111.776497,80.089607 110.708473,81.441269 109.344475,82.929886 
	C110.127014,81.070099 111.205528,79.073364 112.647087,77.037506 
	C112.981598,77.385506 112.953072,77.772629 112.884537,78.448845 
z"/>
<path fill="#4F90DB" opacity="1.000000" stroke="none" 
	d="
M121.233986,20.342005 
	C119.565948,19.365292 117.816879,18.083254 116.039551,16.459240 
	C117.725189,17.423737 119.439072,18.730209 121.233986,20.342005 
z"/>
<path fill="#BBC8D6" opacity="1.000000" stroke="none" 
	d="
M44.772266,123.592148 
	C43.970989,125.036453 42.964336,126.206459 41.820091,127.709457 
	C41.435772,127.239830 41.189045,126.437218 40.898453,125.310104 
	C42.092022,124.429695 43.329456,123.873772 44.772266,123.592148 
z"/>
<path fill="#F1F1F1" opacity="1.000000" stroke="none" 
	d="
M10.752954,125.997383 
	C11.003074,129.360733 11.002387,132.723816 11.001545,136.543854 
	C11.001389,137.000824 10.502573,137.000076 10.253242,136.998352 
	C10.002448,133.635727 10.000983,130.274857 10.000030,126.457191 
	C10.167742,125.999306 10.334944,125.998207 10.752954,125.997383 
z"/>
<path fill="#F3F6F7" opacity="1.000000" stroke="none" 
	d="
M146.887711,122.993813 
	C145.620895,123.425972 144.217621,123.573784 142.395966,123.626175 
	C143.568817,123.256996 145.160034,122.983231 146.887711,122.993813 
z"/>
<path fill="#5787C1" opacity="1.000000" stroke="none" 
	d="
M106.385330,10.812310 
	C104.490005,10.798605 102.378517,10.527470 100.112366,9.957130 
	C102.028183,9.956911 104.098671,10.255896 106.385330,10.812310 
z"/>
<path fill="#F3F6F7" opacity="1.000000" stroke="none" 
	d="
M144.212662,144.762268 
	C144.353760,142.708267 144.780762,140.438904 145.611954,138.244049 
	C145.510269,140.394699 145.004425,142.470795 144.212662,144.762268 
z"/>
<path fill="#F1F1F1" opacity="1.000000" stroke="none" 
	d="
M13.272915,136.770401 
	C13.092639,135.346436 13.185366,133.692215 13.296229,132.039200 
	C13.296953,132.028412 13.585653,131.982681 13.674400,132.045624 
	C13.789455,132.127197 13.838670,132.301605 13.959851,132.718948 
	C13.851214,134.181290 13.698949,135.360733 13.272915,136.770401 
z"/>
<path fill="#649CDB" opacity="1.000000" stroke="none" 
	d="
M113.371552,76.336151 
	C113.547966,75.019554 113.947472,73.599869 114.763542,72.367210 
	C115.180107,72.554230 115.317139,72.975357 115.317139,72.975357 
	C115.236328,73.135292 115.155518,73.295235 114.793716,73.896255 
	C114.352165,74.893860 114.191605,75.450378 114.031052,76.006897 
	C114.031052,76.006897 113.594650,76.233070 113.371552,76.336151 
z"/>
<path fill="#E8F0F5" opacity="1.000000" stroke="none" 
	d="
M47.444134,129.783188 
	C47.157333,128.915970 47.097557,127.844559 47.119026,126.377090 
	C47.357231,127.180351 47.514194,128.379684 47.444134,129.783188 
z"/>
<path fill="#5787C1" opacity="1.000000" stroke="none" 
	d="
M78.680389,14.992008 
	C78.281097,15.609919 77.584465,16.285875 76.552315,16.976017 
	C76.938881,16.343487 77.660965,15.696771 78.680389,14.992008 
z"/>
<path fill="#F4F8FA" opacity="1.000000" stroke="none" 
	d="
M64.611374,34.136593 
	C64.761009,34.840214 64.647575,35.691956 64.327591,36.792564 
	C64.196793,36.122528 64.272545,35.203617 64.611374,34.136593 
z"/>
<path fill="#F4F8FA" opacity="1.000000" stroke="none" 
	d="
M63.592148,41.281532 
	C63.902954,42.409771 63.977734,43.786663 63.989983,45.573490 
	C63.737007,44.499012 63.546562,43.014595 63.592148,41.281532 
z"/>
<path fill="#DFEDF7" opacity="1.000000" stroke="none" 
	d="
M115.055969,83.578247 
	C114.961624,83.906807 114.767075,83.935371 114.278229,83.983643 
	C113.807007,83.976387 113.630096,83.949425 113.218529,83.792114 
	C112.987152,83.297455 112.990433,82.933144 112.996979,82.296013 
	C113.652092,82.441559 114.303932,82.859909 115.055969,83.578247 
z"/>
<path fill="#C8D3DF" opacity="1.000000" stroke="none" 
	d="
M54.576424,144.181427 
	C55.160881,144.231827 55.515835,144.414215 55.907131,144.910919 
	C55.589279,145.402283 55.235085,145.579346 54.880894,145.756409 
	C54.702908,145.275436 54.524918,144.794434 54.576424,144.181427 
z"/>
<path fill="#F6F9FA" opacity="1.000000" stroke="none" 
	d="
M130.442749,42.960213 
	C130.116882,42.558140 130.070282,42.109196 130.090912,41.326641 
	C130.637833,41.313465 131.117508,41.633904 131.597198,41.954338 
	C131.305481,42.274006 131.013748,42.593674 130.442749,42.960213 
z"/>
<path fill="#DFEDF7" opacity="1.000000" stroke="none" 
	d="
M80.693886,82.039459 
	C81.019852,82.387222 81.039391,82.764946 81.081284,83.425552 
	C80.635544,83.792549 80.167450,83.876663 79.346130,83.894524 
	C79.457756,83.241982 79.922615,82.655693 80.693886,82.039459 
z"/>
<path fill="#498EDD" opacity="1.000000" stroke="none" 
	d="
M83.942078,81.750282 
	C83.242989,81.657913 82.513527,81.244453 81.467072,80.787422 
	C81.150085,80.743851 81.231812,80.360435 81.329803,80.190536 
	C82.255760,80.490150 83.083733,80.959671 83.942078,81.750282 
z"/>
<path fill="#BBC8D6" opacity="1.000000" stroke="none" 
	d="
M42.072014,135.750061 
	C42.091713,136.485779 42.017090,136.946228 41.815475,137.733810 
	C41.368477,137.956329 41.149899,137.746170 40.920593,137.223877 
	C40.965240,136.461426 41.122044,135.905533 41.492634,135.154816 
	C41.796844,135.131592 41.887268,135.303192 42.072014,135.750061 
z"/>
<path fill="#F6F9FA" opacity="1.000000" stroke="none" 
	d="
M129.944977,36.853466 
	C129.912659,37.200489 129.510880,37.059345 129.306778,36.999546 
	C129.093582,36.213493 129.084488,35.487244 129.112671,34.399773 
	C129.425735,34.861187 129.701508,35.683815 129.944977,36.853466 
z"/>
<path fill="#E5EDF3" opacity="1.000000" stroke="none" 
	d="
M88.265930,94.387665 
	C88.948402,94.212440 89.894714,94.287651 91.119568,94.598236 
	C90.441986,94.768440 89.485878,94.703262 88.265930,94.387665 
z"/>
<path fill="#F1F1F1" opacity="1.000000" stroke="none" 
	d="
M15.616102,126.004509 
	C15.113562,126.170456 14.237030,126.335281 13.178621,126.249268 
	C13.745201,126.000084 14.493656,126.001740 15.616102,126.004509 
z"/>
<path fill="#F3F6F7" opacity="1.000000" stroke="none" 
	d="
M148.210968,138.468750 
	C148.455872,138.194626 148.881973,138.103836 149.633743,137.966125 
	C149.436996,138.163498 148.914581,138.407791 148.210968,138.468750 
z"/>
<path fill="#F4F8FA" opacity="1.000000" stroke="none" 
	d="
M65.645065,30.223652 
	C65.769722,30.614624 65.662781,31.202650 65.322922,31.988266 
	C65.197823,31.597475 65.305649,31.009090 65.645065,30.223652 
z"/>
<path fill="#F6F9FA" opacity="1.000000" stroke="none" 
	d="
M128.962051,32.798485 
	C128.680954,32.599804 128.407913,32.109699 128.160370,31.329777 
	C128.447296,31.528994 128.708710,32.018028 128.962051,32.798485 
z"/>
<path fill="#EAF7FD" opacity="1.000000" stroke="none" 
	d="
M114.275330,75.835922 
	C114.191605,75.450378 114.352165,74.893860 114.753738,74.162048 
	C114.836380,74.546158 114.678001,75.105553 114.275330,75.835922 
z"/>
<path fill="#EAF7FD" opacity="1.000000" stroke="none" 
	d="
M115.481468,72.867821 
	C115.317139,72.975357 115.180107,72.554230 115.152969,72.334923 
	C115.125824,72.115616 115.095589,72.075005 115.308304,72.068306 
	C115.521011,72.061607 115.958778,71.960922 115.958778,71.960922 
	C115.958778,71.960922 116.033798,72.041237 116.070358,72.083588 
	C115.991318,72.365105 115.837616,72.576546 115.481468,72.867821 
z"/>
<path fill="#EAF7FD" opacity="1.000000" stroke="none" 
	d="
M121.340927,64.934807 
	C121.163689,64.709679 121.309525,64.446434 121.807602,64.180359 
	C121.935059,64.394112 121.769783,64.633842 121.340927,64.934807 
z"/>
<path fill="#6DA3E2" opacity="1.000000" stroke="none" 
	d="
M73.886261,19.109753 
	C74.051994,18.990225 74.534317,18.972998 74.663269,19.202244 
	C74.592110,19.706327 74.331413,19.899342 74.010139,20.010532 
	C74.010139,20.010532 73.766884,19.800501 73.643509,19.692976 
	C73.520142,19.585451 73.720535,19.229279 73.886261,19.109753 
z"/>
<path fill="#E5EDF3" opacity="1.000000" stroke="none" 
	d="
M95.087509,95.384995 
	C95.167099,95.192314 95.335754,95.147057 95.750244,95.192276 
	C95.722900,95.365967 95.449738,95.449196 95.087509,95.384995 
z"/>
<path fill="#BBC8D6" opacity="1.000000" stroke="none" 
	d="
M41.522636,144.072556 
	C41.771122,144.112518 41.854992,144.278549 41.962944,144.722488 
	C41.777359,144.733154 41.567688,144.465897 41.522636,144.072556 
z"/>
<path fill="#E8F0F5" opacity="1.000000" stroke="none" 
	d="
M47.162392,144.929306 
	C46.996597,144.822830 47.003315,144.653305 47.092892,144.243164 
	C47.303711,144.195068 47.452412,144.378387 47.545002,144.586624 
	C47.568043,144.638458 47.409817,144.770874 47.162392,144.929306 
z"/>
<path fill="#FEFEFE" opacity="1.000000" stroke="none" 
	d="
M184.003326,132.748978 
	C183.700912,133.516174 183.397430,134.033569 183.093948,134.550964 
	C182.729813,133.606400 182.365662,132.661835 182.251343,131.360260 
	C182.501144,131.003235 182.998947,131.005753 182.998947,131.005753 
	C183.102875,131.327377 183.291855,131.587128 183.785385,131.892288 
	C184.004883,131.999573 184.002258,132.499176 184.003326,132.748978 
z"/>
<path fill="#F3F3F3" opacity="1.000000" stroke="none" 
	d="
M182.967987,130.676498 
	C182.998947,131.005753 182.501144,131.003235 182.252289,131.003296 
	C181.164505,130.526413 180.325592,130.049469 179.486694,129.572510 
	C179.734055,129.148361 179.981430,128.724213 180.228806,128.300064 
	C181.131546,128.982452 182.034302,129.664841 182.967987,130.676498 
z"/>
<path fill="#649CDB" opacity="1.000000" stroke="none" 
	d="
M109.395470,64.000153 
	C104.600082,61.036201 103.273682,65.078590 100.949219,67.070694 
	C101.684944,62.188782 104.797134,60.235050 109.024811,61.037811 
	C110.899170,61.393715 112.923943,60.957497 114.880432,60.880848 
	C114.880432,60.880848 114.965904,60.966858 115.008530,61.010849 
	C113.294060,62.036350 111.536949,63.017853 109.395470,64.000153 
z"/>
<path fill="#DFEDF7" opacity="1.000000" stroke="none" 
	d="
M99.521385,88.170746 
	C98.158348,88.388168 96.380302,88.542984 94.339233,88.474686 
	C95.752937,88.203773 97.429657,88.155960 99.521385,88.170746 
z"/>
<path fill="#DFEDF7" opacity="1.000000" stroke="none" 
	d="
M103.673378,87.061279 
	C103.254044,87.393944 102.518555,87.715584 101.465744,88.046387 
	C101.884682,87.720451 102.620956,87.385353 103.673378,87.061279 
z"/>
<path fill="#649CDB" opacity="1.000000" stroke="none" 
	d="
M115.994080,71.643967 
	C115.958778,71.960922 115.521011,72.061607 115.298203,72.087158 
	C115.243179,71.523003 115.410973,70.933296 115.864700,70.202850 
	C116.110222,70.483749 116.069801,70.905380 115.994080,71.643967 
z"/>
<path fill="#649CDB" opacity="1.000000" stroke="none" 
	d="
M118.814499,66.142151 
	C118.877594,66.327148 118.697708,66.623375 118.280289,67.038971 
	C118.219017,66.856682 118.395271,66.555023 118.814499,66.142151 
z"/>
<path fill="#649CDB" opacity="1.000000" stroke="none" 
	d="
M116.854630,69.127533 
	C116.928375,69.334358 116.757790,69.644188 116.330009,70.035568 
	C116.251976,69.821587 116.431137,69.526054 116.854630,69.127533 
z"/>
<path fill="#649CDB" opacity="1.000000" stroke="none" 
	d="
M107.808548,84.105225 
	C107.847466,84.284164 107.663330,84.553604 107.233406,84.877655 
	C107.105667,84.620804 107.304962,84.375290 107.808548,84.105225 
z"/>
<path fill="#649CDB" opacity="1.000000" stroke="none" 
	d="
M108.833199,83.124352 
	C108.880875,83.307602 108.691772,83.584999 108.258354,83.946991 
	C108.208160,83.760567 108.402290,83.489532 108.833199,83.124352 
z"/>
<path fill="#649CDB" opacity="1.000000" stroke="none" 
	d="
M120.038391,65.151138 
	C120.066704,65.357040 119.813293,65.621521 119.294586,65.971863 
	C119.271744,65.775063 119.514214,65.492386 120.038391,65.151138 
z"/>
<path fill="#307AD4" opacity="1.000000" stroke="none" 
	d="
M64.874977,48.419598 
	C65.441238,45.820835 65.984428,43.613018 66.834015,41.145119 
	C69.350212,44.382935 71.560020,47.880829 73.933105,51.678009 
	C72.783287,53.243511 71.470177,54.509731 70.157059,55.775951 
	C71.564369,56.873520 72.971680,57.971085 75.355156,59.829971 
	C72.803185,59.477238 71.221855,59.258667 69.251381,59.057194 
	C67.525459,55.653042 66.188690,52.231792 64.874977,48.419598 
z"/>
<path fill="#F0F9FD" opacity="1.000000" stroke="none" 
	d="
M114.978561,60.512520 
	C112.923943,60.957497 110.899170,61.393715 109.024811,61.037811 
	C104.797134,60.235050 101.684944,62.188782 100.609802,67.057907 
	C100.527084,67.411301 100.556114,67.562721 100.238739,67.679413 
	C97.976028,68.092003 96.030685,68.387909 94.085350,68.683807 
	C93.883018,68.201996 93.680695,67.720184 93.231133,67.120636 
	C92.552399,61.718204 90.029129,59.861382 84.293884,60.939777 
	C79.628189,60.006897 79.780090,56.965862 79.937965,53.694496 
	C79.922867,53.475487 79.968246,53.038788 80.114304,52.805569 
	C80.568420,52.231564 80.876472,51.890774 81.184532,51.549984 
	C80.512413,51.361122 79.840302,51.172260 79.168182,50.983398 
	C79.168182,50.983398 79.015015,50.543217 79.008171,50.044289 
	C79.005341,49.367020 79.009354,49.188683 79.150009,48.952660 
	C79.334465,48.807560 79.382271,48.720150 79.430077,48.632740 
	C79.283302,48.750786 79.136520,48.868828 78.791061,48.984806 
	C78.592369,48.982738 78.194992,48.979164 78.194992,48.979164 
	C77.113251,48.320480 75.868477,47.827137 74.990677,46.961617 
	C73.871819,45.858402 72.333542,44.473991 72.297722,43.174366 
	C72.260689,41.830345 73.486198,39.830723 74.718491,39.185337 
	C78.935524,36.976738 79.926476,34.809296 78.047066,29.060316 
	C77.912018,27.931770 77.964729,27.470158 78.280365,26.853245 
	C79.342575,25.790222 80.141853,24.882500 80.941139,23.974777 
	C81.406677,23.928604 81.872208,23.882431 82.954811,23.984207 
	C87.160645,26.755888 89.894569,25.290842 92.310974,22.264256 
	C92.311386,22.223364 92.291458,22.144039 92.556870,21.939987 
	C92.977959,20.852985 93.133636,19.970037 93.586823,18.955238 
	C94.928978,18.565540 95.973618,18.307693 97.018257,18.049843 
	C97.674942,18.117903 98.331635,18.185965 99.512199,18.505173 
	C102.468971,25.060766 105.800896,26.813501 110.094246,24.047348 
	C110.800171,24.045748 111.506104,24.044147 112.716591,24.271496 
	C113.677399,24.771896 114.133636,25.043348 114.599884,25.334616 
	C114.609879,25.354429 114.610893,25.399216 114.610893,25.399216 
	C115.015823,26.737139 116.017952,28.224184 115.727242,29.388405 
	C114.039421,36.147720 114.631081,37.542137 121.441177,40.432438 
	C122.947052,43.424004 122.738182,45.630390 120.003525,47.085419 
	C115.843521,47.988094 114.106216,50.963631 114.988510,55.187412 
	C115.320457,56.776474 115.064590,58.488323 114.978561,60.512520 
M106.840195,33.062538 
	C104.863190,31.974344 102.886177,30.886150 100.293594,29.326969 
	C97.155235,29.819056 94.016876,30.311140 90.194977,30.905329 
	C88.514885,32.917614 86.834801,34.929901 84.602043,36.997337 
	C84.748802,39.701569 84.895561,42.405804 84.928680,45.906662 
	C85.910599,48.960358 86.892525,52.014057 88.029732,55.550690 
	C94.904861,49.539658 94.904861,49.539658 91.005180,46.085682 
	C91.120674,44.891987 91.236160,43.698292 91.413643,41.863892 
	C92.585976,42.855114 93.252098,43.418324 94.069244,44.642128 
	C94.781410,45.443085 95.493576,46.244038 97.032532,47.974850 
	C98.926765,44.194904 100.466812,41.121735 102.673927,37.952076 
	C103.120300,37.947746 103.566673,37.943417 104.109825,38.702084 
	C105.100471,40.069824 106.091125,41.437569 106.856918,43.515503 
	C102.834877,45.066643 98.626030,46.445946 98.230537,52.025555 
	C96.079300,53.101524 93.928062,54.177494 91.776817,55.253468 
	C92.003014,55.667126 92.229202,56.080784 92.455391,56.494442 
	C95.187042,56.494442 97.918701,56.494442 100.858925,56.494442 
	C100.061096,54.619949 99.499702,53.300953 99.697174,51.906181 
	C105.887756,54.715786 109.347893,53.058002 110.563499,46.152496 
	C111.021851,43.548721 110.232079,40.725235 109.901802,37.342815 
	C108.994957,36.105183 108.088104,34.867554 106.840195,33.062538 
z"/>
<path fill="#649CDB" opacity="1.000000" stroke="none" 
	d="
M94.276688,69.032471 
	C96.030685,68.387909 97.976028,68.092003 100.282806,67.742661 
	C99.612396,72.001801 96.764458,69.684845 94.276688,69.032471 
z"/>
<path fill="#5E9CE3" opacity="1.000000" stroke="none" 
	d="
M90.609474,81.535324 
	C91.058273,81.651192 91.330574,81.936050 91.602867,82.220917 
	C91.484917,82.333626 91.366966,82.446335 91.249016,82.559044 
	C90.977005,82.274132 90.704987,81.989220 90.609474,81.535324 
z"/>
<path fill="#BBC8D6" opacity="1.000000" stroke="none" 
	d="
M41.557312,130.200317 
	C42.035202,130.955521 42.267002,131.877472 42.156601,132.886749 
	C41.646679,132.105072 41.478954,131.236053 41.557312,130.200317 
z"/>
<path fill="#E5F3FB" opacity="1.000000" stroke="none" 
	d="
M79.953064,53.913502 
	C79.780090,56.965862 79.628189,60.006897 83.933594,60.968517 
	C82.510017,61.132298 79.500687,61.551208 79.339249,61.051014 
	C78.731323,59.167294 79.050529,56.984360 79.278229,54.481277 
	C79.533943,54.049076 79.953064,53.913502 79.953064,53.913502 
z"/>
<path fill="#5496E1" opacity="1.000000" stroke="none" 
	d="
M87.622681,63.750542 
	C88.918289,63.950687 89.893097,64.039444 90.867905,64.128197 
	C90.833824,64.501640 90.799744,64.875076 90.765663,65.248512 
	C88.994019,65.091248 87.222382,64.933990 85.450737,64.776726 
	C85.491669,64.336678 85.532600,63.896629 85.573532,63.456577 
	C86.149651,63.517437 86.725769,63.578293 87.622681,63.750542 
z"/>
<path fill="#6DA3E2" opacity="1.000000" stroke="none" 
	d="
M79.937965,53.694496 
	C79.953064,53.913502 79.533943,54.049076 79.319382,54.096874 
	C79.060593,53.974766 79.016373,53.804859 78.923164,53.377083 
	C78.874168,53.119213 79.085258,52.924026 79.354210,52.913292 
	C79.623161,52.902554 79.968246,53.038788 79.968246,53.038788 
	C79.968246,53.038788 79.922867,53.475487 79.937965,53.694496 
z"/>
<path fill="#E5F3FB" opacity="1.000000" stroke="none" 
	d="
M148.945831,129.169647 
	C149.003876,130.900696 149.003876,132.184219 149.003876,133.696625 
	C146.935593,133.696625 145.331528,133.696625 143.355042,133.696625 
	C143.355042,131.966873 143.355042,130.259811 143.355042,127.862099 
	C145.224426,128.152679 147.056091,128.437408 148.945831,129.169647 
z"/>
<path fill="#EAF7FD" opacity="1.000000" stroke="none" 
	d="
M126.193436,58.806206 
	C126.098587,58.391773 126.279877,57.809875 126.690506,57.018623 
	C126.769753,57.419094 126.619659,58.028915 126.193436,58.806206 
z"/>
<path fill="#EAF7FD" opacity="1.000000" stroke="none" 
	d="
M125.244614,59.889458 
	C125.176575,59.709301 125.329536,59.411739 125.722527,59.019043 
	C125.796906,59.206627 125.631256,59.489342 125.244614,59.889458 
z"/>
<path fill="#0F3058" opacity="1.000000" stroke="none" 
	d="
M59.975784,132.737076 
	C59.587822,133.103180 59.200916,133.120102 58.524265,133.160156 
	C57.934551,132.051620 57.634583,130.919937 57.334614,129.788254 
	C58.124962,129.988693 58.915310,130.189148 59.857681,130.690475 
	C59.998749,131.456879 59.987789,131.922394 59.975784,132.737076 
z"/>
<path fill="#4E93E4" opacity="1.000000" stroke="none" 
	d="
M119.846062,47.376701 
	C122.738182,45.630390 122.947052,43.424004 121.807304,40.482403 
	C122.129112,39.616920 122.806793,39.119919 122.838486,38.584660 
	C123.148781,33.345249 125.559235,34.859478 128.497528,36.948746 
	C128.859253,37.471031 128.883484,37.909111 128.610199,38.711014 
	C128.209061,39.718235 128.105453,40.361637 128.001831,41.005035 
	C127.606544,42.349575 127.116142,43.676029 126.855644,45.046188 
	C126.723221,45.742767 127.192017,46.554234 127.057625,47.249725 
	C126.821693,48.470741 126.569183,50.491810 125.903122,50.678635 
	C123.745041,51.283970 121.396057,51.208775 119.120605,51.395699 
	C119.309937,50.153130 119.499268,48.910553 119.846062,47.376701 
z"/>
<path fill="#3886DD" opacity="1.000000" stroke="none" 
	d="
M114.988365,24.014256 
	C117.074936,24.005247 119.161514,23.996237 121.621529,23.992825 
	C122.315002,25.645824 122.635033,27.293224 122.955055,28.940626 
	C121.203232,28.155865 119.439323,27.396597 117.704849,26.575203 
	C116.880821,26.184969 116.112885,25.676266 114.965218,25.310223 
	C114.610893,25.399216 114.609879,25.354429 114.736450,25.019312 
	C114.904800,24.460880 114.946579,24.237568 114.988365,24.014256 
z"/>
<path fill="#DFEDF7" opacity="1.000000" stroke="none" 
	d="
M81.516953,84.111046 
	C82.065163,84.357887 82.511787,84.883606 82.986794,85.683487 
	C82.481903,85.435074 81.948631,84.912491 81.516953,84.111046 
z"/>
<path fill="#68A1E3" opacity="1.000000" stroke="none" 
	d="
M78.017433,27.008543 
	C77.964729,27.470158 77.912018,27.931770 77.812149,28.739664 
	C77.468750,30.994591 77.525452,33.062214 76.760780,34.759865 
	C76.184647,36.038940 74.556137,36.843994 73.396065,37.860043 
	C72.628578,36.629871 71.821899,35.422100 71.102959,34.164185 
	C70.070114,32.357044 69.101189,30.513369 68.065155,28.353733 
	C69.925415,25.559624 71.825508,23.097073 73.867874,20.322525 
	C74.331413,19.899342 74.592110,19.706327 74.904388,19.211834 
	C77.965172,19.098303 78.755211,20.686398 77.883034,23.948982 
	C77.850586,25.377401 77.934013,26.192972 78.017433,27.008543 
z"/>
<path fill="#E5F3FB" opacity="1.000000" stroke="none" 
	d="
M80.114304,52.805569 
	C79.968246,53.038788 79.623161,52.902554 79.459953,52.815910 
	C79.235008,52.342690 79.173271,51.956112 79.139862,51.276466 
	C79.840302,51.172260 80.512413,51.361122 81.184532,51.549984 
	C80.876472,51.890774 80.568420,52.231564 80.114304,52.805569 
z"/>
<path fill="#E5F3FB" opacity="1.000000" stroke="none" 
	d="
M79.013359,49.010342 
	C79.009354,49.188683 79.005341,49.367020 78.982498,49.812675 
	C78.641800,49.970345 78.409149,49.761391 78.230347,49.216148 
	C78.194992,48.979164 78.592369,48.982738 78.796234,48.991364 
	C79.000107,48.999989 79.013359,49.010342 79.013359,49.010342 
z"/>
<path fill="#4F90DB" opacity="1.000000" stroke="none" 
	d="
M128.241623,40.835564 
	C128.105453,40.361637 128.209061,39.718235 128.590576,39.039795 
	C128.739471,39.558537 128.610443,40.112316 128.241623,40.835564 
z"/>
<path fill="#2571C2" opacity="1.000000" stroke="none" 
	d="
M109.780762,23.898197 
	C105.800896,26.813501 102.468971,25.060766 99.838638,18.445885 
	C100.802589,18.090727 101.963966,18.046000 103.559906,18.001904 
	C105.818733,19.918039 107.643005,21.833544 109.780762,23.898197 
z"/>
<path fill="#4F90DB" opacity="1.000000" stroke="none" 
	d="
M114.643280,24.004976 
	C114.946579,24.237568 114.904800,24.460880 114.726448,24.999498 
	C114.133636,25.043348 113.677399,24.771896 113.070015,24.272459 
	C113.378647,24.028215 113.838417,24.011957 114.643280,24.004976 
z"/>
<path fill="#4E90DD" opacity="1.000000" stroke="none" 
	d="
M92.310570,22.305149 
	C89.894569,25.290842 87.160645,26.755888 83.299881,23.920895 
	C83.349403,20.755913 83.670921,17.802197 83.982651,14.436591 
	C84.727272,13.689909 85.481674,13.355117 86.561348,13.021322 
	C87.066772,13.028290 87.246933,13.034260 87.752182,13.417074 
	C88.353821,15.074222 89.201279,16.576878 88.804726,17.595026 
	C87.351532,21.326187 89.516632,21.957708 92.310570,22.305149 
z"/>
<path fill="#3884DE" opacity="1.000000" stroke="none" 
	d="
M92.310974,22.264256 
	C89.516632,21.957708 87.351532,21.326187 88.804726,17.595026 
	C89.201279,16.576878 88.353821,15.074222 88.022499,13.423401 
	C91.268593,13.824159 96.007256,11.491024 97.010986,17.643850 
	C95.973618,18.307693 94.928978,18.565540 93.258919,19.109451 
	C92.519485,20.311689 92.405472,21.227863 92.291458,22.144039 
	C92.291458,22.144039 92.311386,22.223364 92.310974,22.264256 
z"/>
<path fill="#6DA3E2" opacity="1.000000" stroke="none" 
	d="
M78.280365,26.853245 
	C77.934013,26.192972 77.850586,25.377401 77.880646,24.289711 
	C78.731163,24.003313 79.468201,23.989035 80.573189,23.974766 
	C80.141853,24.882500 79.342575,25.790222 78.280365,26.853245 
z"/>
<path fill="#357ED3" opacity="1.000000" stroke="none" 
	d="
M90.878517,30.803225 
	C94.016876,30.311140 97.155235,29.819056 100.763298,29.950439 
	C101.490959,33.065460 101.748909,35.557011 102.006866,38.048561 
	C100.466812,41.121735 98.926765,44.194904 97.032532,47.974850 
	C95.493576,46.244038 94.781410,45.443085 94.111267,43.939762 
	C93.460388,41.148479 92.767487,39.059566 92.354782,36.876778 
	C93.881760,37.120171 95.128548,37.457439 96.701653,37.882984 
	C97.080833,33.131676 93.274658,32.563652 90.878517,30.803225 
z"/>
<path fill="#4E86C7" opacity="1.000000" stroke="none" 
	d="
M110.011276,38.001907 
	C110.232079,40.725235 111.021851,43.548721 110.563499,46.152496 
	C109.347893,53.058002 105.887756,54.715786 99.332733,51.963226 
	C98.968292,52.020271 99.008057,52.048199 99.008057,52.048199 
	C98.626030,46.445946 102.834877,45.066643 107.085884,42.874508 
	C108.213654,40.822975 109.112465,39.412441 110.011276,38.001907 
z"/>
<path fill="#E4FDFF" opacity="1.000000" stroke="none" 
	d="
M92.074593,36.970650 
	C92.767487,39.059566 93.460388,41.148479 94.035751,43.609467 
	C93.252098,43.418324 92.585976,42.855114 91.413643,41.863892 
	C91.236160,43.698292 91.120674,44.891987 90.640236,46.522606 
	C88.530968,46.343033 86.786644,45.726532 85.042320,45.110035 
	C84.895561,42.405804 84.748802,39.701569 85.307983,36.968842 
	C88.034149,36.950443 90.054367,36.960548 92.074593,36.970650 
z"/>
<path fill="#4087D9" opacity="1.000000" stroke="none" 
	d="
M92.354782,36.876778 
	C90.054367,36.960548 88.034149,36.950443 85.584320,36.941265 
	C86.834801,34.929901 88.514885,32.917614 90.536743,30.854277 
	C93.274658,32.563652 97.080833,33.131676 96.701653,37.882984 
	C95.128548,37.457439 93.881760,37.120171 92.354782,36.876778 
z"/>
<path fill="#4A89D4" opacity="1.000000" stroke="none" 
	d="
M84.985504,45.508347 
	C86.786644,45.726532 88.530968,46.343033 90.642517,46.890907 
	C94.904861,49.539658 94.904861,49.539658 88.029732,55.550690 
	C86.892525,52.014057 85.910599,48.960358 84.985504,45.508347 
z"/>
<path fill="#3D70AC" opacity="1.000000" stroke="none" 
	d="
M109.956543,37.672363 
	C109.112465,39.412441 108.213654,40.822975 107.198311,42.519413 
	C106.091125,41.437569 105.100471,40.069824 104.065628,37.951565 
	C105.074707,36.010670 106.127983,34.820293 107.181259,33.629921 
	C108.088104,34.867554 108.994957,36.105183 109.956543,37.672363 
z"/>
<path fill="#558CC7" opacity="1.000000" stroke="none" 
	d="
M98.953300,52.001114 
	C99.499702,53.300953 100.061096,54.619949 100.858925,56.494442 
	C97.918701,56.494442 95.187042,56.494442 92.455391,56.494442 
	C92.229202,56.080784 92.003014,55.667126 91.776817,55.253468 
	C93.928062,54.177494 96.079300,53.101524 98.619293,52.036877 
	C99.008057,52.048199 98.968292,52.020271 98.953300,52.001114 
z"/>
<path fill="#3273BA" opacity="1.000000" stroke="none" 
	d="
M107.010727,33.346230 
	C106.127983,34.820293 105.074707,36.010670 104.017242,37.570068 
	C103.566673,37.943417 103.120300,37.947746 102.340393,38.000320 
	C101.748909,35.557011 101.490959,33.065460 101.071091,30.185934 
	C102.886177,30.886150 104.863190,31.974344 107.010727,33.346230 
z"/>
<path fill="#4E90DD" opacity="1.000000" stroke="none" 
	d="
M92.556870,21.939987 
	C92.405472,21.227863 92.519485,20.311689 92.961403,19.241302 
	C93.133636,19.970037 92.977959,20.852985 92.556870,21.939987 
z"/>
<path fill="#E5F3FB" opacity="1.000000" stroke="none" 
	d="
M78.994926,48.993431 
	C79.136520,48.868828 79.283302,48.750786 79.430077,48.632740 
	C79.382271,48.720150 79.334465,48.807560 79.150009,48.952660 
	C79.013359,49.010342 79.000107,48.999989 78.994926,48.993431 
z"/>
</svg>